<?xml version="1.0"?>
<svg xmlns:rdf="http://www.w3.org/1999/02/22-rdf-syntax-ns#" xmlns="http://www.w3.org/2000/svg" xmlns:cc="http://web.resource.org/cc/" xmlns:dc="http://purl.org/dc/elements/1.1/" xmlns:svg="http://www.w3.org/2000/svg" id="svg5270" viewBox="0 0 1323.8 627.06" version="1.0">
  <g id="layer1" transform="translate(229.06 -205.99)">
    <path id="path3231" d="m110.13 429.96l137.65-98.8c72.14-45.97 123.34-20.32 127.27-7.41-108.92 39.89-129.28 97.19-88.31 117.33l592.16-196.37c7.95 21.94 16.06 40.56 20.78 54.03l-601.25 210.26c-71.66 23-67.68 108.56 14.28 96.34 35.27-10.12 83.37-4.07 38.96 39.52-29.89 26.25-65.88 26.41-102.59 23.46-44.91-1.86-87.06-5.41-135.05 49.41-53.429 82.83-198.01 158.39-281.8 76.57-93.64-130.76-84.21-331.48 109.08-370.51l168.82 6.17z" stroke="#000" stroke-width="7.092px" fill-rule="evenodd"/>
    <path id="path3233" d="m-26.223 633.74c-16.55 90.8-56.434 130.5-103.89 149.44l-1.3 16.06c54.541 5.23 109.08 5.86 163.62-40.76 63.233-55.69 92.05-130.48 272.71-121.03 22.8-2.43 40.7-7.95 42.85-23.47-71.83 16.64-126.5-5.35-112.97-82.74l-246.09 86.45-14.933 16.05z" fill-rule="evenodd" stroke="#000" stroke-width="7.092px" fill="#fff"/>
    <path id="path3235" d="m-34.015 536.79l23.375 80.9-18.18 18.52-18.181 8.65-14.284 8.64-42.855-4.94-20.78-66.69 24.68-18.52 14.281-22.23 24.674-6.18 27.27 1.85z" fill-rule="evenodd" stroke="#000" stroke-width="7.092px" fill="#808080"/>
    <path id="path3239" d="m-36.612 530c-0.239-24.29 11.201-44.25 72.722-45.7 106.99 1.14 143.37-27.93 183.1-55.57 22.71-5.95 29.07 11.05 31.17 24.7l-283.1 90.16-3.892-13.59z" fill-rule="evenodd" stroke="#000" stroke-width="7.092px" fill="#fff"/>
    <path id="path3237" d="m-30.119 542.97l20.778 77.19 905.12-319.88-18.18-55.57-907.72 297.64 0.001 0.62z" fill-rule="evenodd" stroke="#000" stroke-width="7.092px" fill="#fff"/>
    <path id="path3241" d="m365 796.65a1.6071 1.4286 0 1 1 -3.21 0 1.6071 1.4286 0 1 1 3.21 0z" fill="#f00" transform="matrix(7.2722 0 0 6.9162 -2642.9 -4864.9)"/>
    <path id="path4215" d="m365 796.65a1.6071 1.4286 0 1 1 -3.21 0 1.6071 1.4286 0 1 1 3.21 0z" transform="matrix(7.2722 0 0 6.9162 -2667.3 -4795)"/>
    <path id="path4217" d="m365 796.65a1.6071 1.4286 0 1 1 -3.21 0 1.6071 1.4286 0 1 1 3.21 0z" transform="matrix(7.2722 0 0 6.9162 -2654.4 -4829)"/>
    <path id="path4219" d="m27.669 686.85l-4.545 19.14 6.493-1.85 4.545-14.82-6.493-2.47z" stroke="#000" stroke-width="7.092px" fill="none"/>
    <path id="path5190" d="m5.5927 517.65l27.27 102.51 22.077-7.41-29.868-102.51-19.479 7.41z" stroke="#000" stroke-width="7.092px" fill-rule="evenodd"/>
    <path id="path5192" d="m67.926 499.74l30.517 100.04 20.127-6.18-33.113-100.03-17.531 6.17z" stroke="#000" stroke-width="7.092px" fill-rule="evenodd"/>
    <path id="path5194" d="m128.31 482.45l32.47 99.42 18.83-6.17-36.37-98.19-14.93 4.94z" stroke="#000" stroke-width="7.092px" fill-rule="evenodd"/>
    <path id="path5196" d="m-24.924 554.7l911.61-301.35-911.61 301.35z" stroke="#000" stroke-width="7.092px" fill="none"/>
    <path id="path5198" d="m-11.799 602.74l923.03-320.85-923.03 320.85z" stroke="#000" stroke-width="7.3634px" fill="none"/>
    <path id="path5200" d="m-24.775 570.96l921.7-307.93-921.7 307.93z" stroke="#000" stroke-width="7.2031px" fill="none"/>
    <path id="path5202" d="m-17.042 586.73l920.53-313.53-920.53 313.53z" stroke="#000" stroke-width="7.2691px" fill="none"/>
    <path id="path5216" d="m251.03 445.92l23.37 71.83-23.37-71.83z" stroke="#000" stroke-width="7.092px" fill="none"/>
    <path id="path5220" d="m558.41 347.98l19.56 68.21-19.56-68.21z" stroke="#000" stroke-width="6.3237px" fill="none"/>
    <path id="path5222" d="m610.24 331.81l18.87 65.81-18.87-65.81z" stroke="#000" stroke-width="6.1009px" fill="none"/>
    <path id="path5224" d="m660.88 314.52l18.88 65.81-18.88-65.81z" stroke="#000" stroke-width="6.1009px" fill="none"/>
    <path id="path5226" d="m712.76 299.64l19.01 62.44-19.01-62.44z" stroke="#000" stroke-width="5.9649px" fill="none"/>
    <path id="path5228" d="m756.87 284.78l19.09 60.77-19.09-60.77z" stroke="#000" stroke-width="5.8953px" fill="none"/>
    <path id="path5230" d="m800.79 270.97l16.8 58.6-16.8-58.6z" stroke="#000" stroke-width="5.4323px" fill="none"/>
    <path id="path5232" d="m841.12 254.99l17.57 59.32-17.57-59.32z" stroke="#000" stroke-width="5.5877px" fill="none"/>
    <path id="path5234" d="m296.48 434.81l23.37 71.82-23.37-71.82z" stroke="#000" stroke-width="7.092px" fill="none"/>
    <path id="path5236" d="m358.82 414.92l21.36 65.96-21.36-65.96z" stroke="#000" stroke-width="6.2893px" fill="none"/>
    <path id="path5238" d="m419.62 396.3l21.99 67.02-21.99-67.02z" stroke="#000" stroke-width="6.6455px" fill="none"/>
    <path id="path5240" d="m458.42 382.57l20.47 65.57-20.47-65.57z" stroke="#000" stroke-width="6.3413px" fill="none"/>
    <path id="path5242" d="m505.24 365.35l20.33 68.92-20.33-68.92z" stroke="#000" stroke-width="6.4792px" fill="none"/>
    <path id="path5244" d="m251.03 445.92l23.37 71.83-23.37-71.83z" stroke="#000" stroke-width="7.092px" fill="none"/>
    <path id="path5246" d="m251.03 445.92l23.37 71.83-23.37-71.83z" stroke="#000" stroke-width="7.092px" fill="none"/>
    <path id="path5248" d="m251.03 445.92l23.37 71.83-23.37-71.83z" stroke="#000" stroke-width="7.092px" fill="none"/>
    <path id="path5250" d="m389.98 402.7l23.37 71.82-23.37-71.82z" stroke="#000" stroke-width="7.092px" fill="none"/>
    <path id="path5252" d="m325.05 423.69l23.37 71.83-23.37-71.83z" stroke="#000" stroke-width="7.092px" fill="none"/>
    <path id="path5254" d="m271.81 440.98l23.37 71.83-23.37-71.83z" stroke="#000" stroke-width="7.092px" fill="none"/>
    <path id="path5256" d="m878.25 243.47l5.85-8.03 155.8-15.43 32.5 5.55 11.7 11.12 7.1 17.91-2.6 16.67-7.1 9.26-10.4-3.7-5.2-12.97-12.3-3.09-8.5-0.62-86.33 48.79-20.13 1.85h-18.83l-12.34-8.64-7.14-4.33-22.08-54.34z" stroke="#000" stroke-width="7.092px" fill-rule="evenodd"/>
    <path id="path5258" d="m897.97 222.12l1.43 11.86 12.38-0.42-1.43-12.71-12.38 1.27z" stroke="#000" stroke-width="5.0284px" fill-rule="evenodd"/>
    <path id="path5260" d="m1030.4 209.77l1.5 11.86 12.3-0.42-1.4-12.71-12.4 1.27z" stroke="#000" stroke-width="5.0284px" fill-rule="evenodd"/>
    <path id="path5262" d="m1004.5 212.24l1.4 11.86 12.4-0.42-1.5-12.71-12.3 1.27z" stroke="#000" stroke-width="5.0284px" fill-rule="evenodd"/>
    <path id="path5264" d="m979.14 214.71l1.42 11.86 12.38-0.42-1.43-12.71-12.37 1.27z" stroke="#000" stroke-width="5.0284px" fill-rule="evenodd"/>
    <path id="path5266" d="m952.51 217.18l1.43 11.86 12.38-0.42-1.43-12.71-12.38 1.27z" stroke="#000" stroke-width="5.0284px" fill-rule="evenodd"/>
    <path id="path5268" d="m923.94 219.65l1.43 11.86 12.38-0.42-1.43-12.71-12.38 1.27z" stroke="#000" stroke-width="5.0284px" fill-rule="evenodd"/>
  </g>
  <metadata>
    <rdf:RDF>
      <cc:Work>
        <dc:format>image/svg+xml</dc:format>
        <dc:type rdf:resource="http://purl.org/dc/dcmitype/StillImage"/>
        <cc:license rdf:resource="http://creativecommons.org/licenses/publicdomain/"/>
        <dc:publisher>
          <cc:Agent rdf:about="http://openclipart.org/">
            <dc:title>Openclipart</dc:title>
          </cc:Agent>
        </dc:publisher>
        <dc:title>Guitar</dc:title>
        <dc:date>2007-11-06T01:16:59</dc:date>
        <dc:description>A black and white guitar, with three captadores.</dc:description>
        <dc:source>http://openclipart.org/detail/7954/guitar-by-renoliver</dc:source>
        <dc:creator>
          <cc:Agent>
            <dc:title>RenOliver</dc:title>
          </cc:Agent>
        </dc:creator>
        <dc:subject>
          <rdf:Bag>
            <rdf:li>black</rdf:li>
            <rdf:li>brazil</rdf:li>
            <rdf:li>clip art</rdf:li>
            <rdf:li>clipart</rdf:li>
            <rdf:li>electric guitar</rdf:li>
            <rdf:li>guitar</rdf:li>
            <rdf:li>image</rdf:li>
            <rdf:li>instrument</rdf:li>
            <rdf:li>media</rdf:li>
            <rdf:li>music</rdf:li>
            <rdf:li>png</rdf:li>
            <rdf:li>pop</rdf:li>
            <rdf:li>public domain</rdf:li>
            <rdf:li>rock</rdf:li>
            <rdf:li>svg</rdf:li>
          </rdf:Bag>
        </dc:subject>
      </cc:Work>
      <cc:License rdf:about="http://creativecommons.org/licenses/publicdomain/">
        <cc:permits rdf:resource="http://creativecommons.org/ns#Reproduction"/>
        <cc:permits rdf:resource="http://creativecommons.org/ns#Distribution"/>
        <cc:permits rdf:resource="http://creativecommons.org/ns#DerivativeWorks"/>
      </cc:License>
    </rdf:RDF>
  </metadata>
</svg>
